<svg width="22" height="13" viewBox="0 0 22 13" fill="none" xmlns="http://www.w3.org/2000/svg">
<path d="M2.18059 8.00309C2.08595 8.25911 1.8943 8.46847 1.64635 8.58669C1.3984 8.70491 1.11369 8.72268 0.852733 8.63621C0.591773 8.54975 0.375122 8.36587 0.248813 8.12364C0.122505 7.88142 0.0964936 7.59994 0.176307 7.33901C0.155165 7.40186 0.176307 7.33692 0.176307 7.33692C0.214006 7.22161 0.25776 7.10833 0.307389 6.99755C0.391958 6.79853 0.516697 6.5241 0.68795 6.19939C1.03468 5.54998 1.58015 4.68479 2.37933 3.8196C4.00094 2.07037 6.65007 0.337891 10.6925 0.337891C14.737 0.337891 17.3861 2.07037 19.0035 3.8196C19.867 4.75792 20.5672 5.83185 21.0754 6.99755C21.1177 7.09601 21.1494 7.17561 21.1706 7.23427C21.179 7.25103 21.2002 7.35996 21.2213 7.46471C21.2403 7.56107 21.2572 7.65325 21.2636 7.67001C21.2636 7.67001 21.4412 8.36761 20.5405 8.66298C20.2753 8.75075 19.9858 8.73081 19.7353 8.60752C19.4849 8.48424 19.294 8.26765 19.2043 8.00519V7.9989L19.1895 7.96539C19.0833 7.69627 18.9619 7.4333 18.8259 7.17771C18.4506 6.47502 17.9867 5.82247 17.4453 5.23574C16.1556 3.84264 14.0477 2.43278 10.6925 2.43278C7.33719 2.43278 5.22931 3.84264 3.93963 5.23574C3.24138 5.99424 2.67356 6.86119 2.25882 7.80199C2.23663 7.85605 2.21548 7.91052 2.19539 7.96539L2.18059 8.00309Z" fill="#868686"/>
<path d="M10.692 4.52783C9.57059 4.52783 8.49508 4.96925 7.7021 5.75498C6.90912 6.54072 6.46362 7.6064 6.46362 8.71759C6.46362 9.82878 6.90912 10.8945 7.7021 11.6802C8.49508 12.4659 9.57059 12.9074 10.692 12.9074C11.8135 12.9074 12.889 12.4659 13.682 11.6802C14.475 10.8945 14.9204 9.82878 14.9204 8.71759C14.9204 7.6064 14.475 6.54072 13.682 5.75498C12.889 4.96925 11.8135 4.52783 10.692 4.52783ZM8.57783 8.71759C8.57783 8.162 8.80058 7.62915 9.19707 7.23629C9.59356 6.84342 10.1313 6.62271 10.692 6.62271C11.2528 6.62271 11.7905 6.84342 12.187 7.23629C12.5835 7.62915 12.8062 8.162 12.8062 8.71759C12.8062 9.27319 12.5835 9.80603 12.187 10.1989C11.7905 10.5918 11.2528 10.8125 10.692 10.8125C10.1313 10.8125 9.59356 10.5918 9.19707 10.1989C8.80058 9.80603 8.57783 9.27319 8.57783 8.71759Z" fill="#868686"/>
</svg>
