<svg width="35" height="35" viewBox="0 0 35 35" fill="none" xmlns="http://www.w3.org/2000/svg">
<path d="M17.3327 34.6655C26.9053 34.6655 34.6655 26.9053 34.6655 17.3327C34.6655 7.76013 26.9053 0 17.3327 0C7.76013 0 0 7.76013 0 17.3327C0 26.9053 7.76013 34.6655 17.3327 34.6655Z" fill="#007AB9"/>
<path d="M27.6904 18.7271V25.873H23.5474V19.206C23.5474 17.532 22.9493 16.3888 21.4492 16.3888C20.3045 16.3888 19.6244 17.1584 19.3241 17.9037C19.215 18.17 19.1869 18.5399 19.1869 18.9134V25.8727H15.0436C15.0436 25.8727 15.0992 14.581 15.0436 13.4122H19.1872V15.1779C19.1789 15.1918 19.1671 15.2054 19.1597 15.2187H19.1872V15.1779C19.7378 14.3307 20.7197 13.1196 22.9211 13.1196C25.6469 13.1196 27.6904 14.9005 27.6904 18.7271ZM10.7093 7.40573C9.29206 7.40573 8.36484 8.33605 8.36484 9.55834C8.36484 10.7547 9.26518 11.7119 10.6549 11.7119H10.6818C12.1269 11.7119 13.0254 10.7547 13.0254 9.55834C12.9979 8.33605 12.1269 7.40573 10.7093 7.40573ZM8.61109 25.873H12.7529V13.4122H8.61109V25.873Z" fill="#F1F2F2"/>
</svg>
